<?xml version="1.0" encoding="UTF-8"?>
<svg version="1.1" xmlns="http://www.w3.org/2000/svg" width="261" height="239">
<path d="M0 0 C1.33676285 -0.01441132 1.33676285 -0.01441132 2.70053101 -0.02911377 C3.67027863 -0.03336365 4.64002625 -0.03761353 5.63916016 -0.04199219 C6.62945221 -0.04769226 7.61974426 -0.05339233 8.64004517 -0.05926514 C10.73999965 -0.06873119 12.83996911 -0.07525546 14.93994141 -0.07910156 C18.15765238 -0.08880515 21.37472434 -0.11981281 24.59228516 -0.15136719 C26.62873968 -0.15789705 28.66519879 -0.16314758 30.70166016 -0.16699219 C31.66735931 -0.17933899 32.63305847 -0.19168579 33.62802124 -0.20440674 C34.52550079 -0.20140564 35.42298035 -0.19840454 36.34765625 -0.1953125 C37.13739838 -0.19895813 37.9271405 -0.20260376 38.74081421 -0.20635986 C41.46213783 0.27854239 42.08046703 0.99600265 43.80322266 3.16113281 C44.97119141 6.29785156 44.97119141 6.29785156 45.99072266 9.84863281 C46.33490234 11.028125 46.67908203 12.20761719 47.03369141 13.42285156 C47.28763672 14.32648437 47.54158203 15.23011719 47.80322266 16.16113281 C48.44521858 16.16259937 49.08721451 16.16406593 49.74866486 16.16557693 C65.39052606 16.20267485 81.03212843 16.26172885 96.67380524 16.34503555 C104.23810671 16.38479654 111.8023046 16.41720388 119.36669922 16.43212891 C125.96203918 16.44516077 132.55715093 16.47216426 139.15236235 16.51574588 C142.64254074 16.53832659 146.13243801 16.55404556 149.62269592 16.55301666 C153.52490262 16.55212868 157.42653737 16.58244208 161.32861328 16.61523438 C162.47804413 16.61020401 163.62747498 16.60517365 164.81173706 16.59999084 C172.41997139 16.69880884 178.18812703 17.64893364 183.86181641 23.16113281 C184.31685547 23.82113281 184.77189453 24.48113281 185.24072266 25.16113281 C185.71380859 25.82113281 186.18689453 26.48113281 186.67431641 27.16113281 C188.75111985 30.84045241 188.93120997 34.27363813 188.95039368 38.44769287 C188.96112663 40.05411652 188.96112663 40.05411652 188.97207642 41.69299316 C188.97476532 42.86293823 188.97745422 44.0328833 188.98022461 45.23828125 C188.98679581 46.47447205 188.993367 47.71066284 189.00013733 48.98431396 C189.01986579 53.07971439 189.0315353 57.17507568 189.04150391 61.27050781 C189.04555325 62.6831489 189.04967023 64.09578979 189.05385399 65.50843048 C189.0728953 72.14632168 189.08712849 78.78420184 189.09546596 85.42211509 C189.10523448 93.07199413 189.13154809 100.72158352 189.17196685 108.37136054 C189.20217353 114.29253877 189.21693913 120.21363418 189.22024697 126.13488793 C189.22259228 129.66754798 189.23148445 133.19989822 189.25670815 136.73247528 C189.28442085 140.67721219 189.28014378 144.62157093 189.27319336 148.56640625 C189.29240845 150.30917847 189.29240845 150.30917847 189.31201172 152.0871582 C189.26258533 159.79050639 188.23950861 165.2666754 182.98681641 171.21972656 C182.41060547 171.67476562 181.83439453 172.12980469 181.24072266 172.59863281 C180.66193359 173.07171875 180.08314453 173.54480469 179.48681641 174.03222656 C176.23593989 176.21204863 173.4042585 176.27283458 169.61572266 176.22363281 C168.71466797 176.21460938 167.81361328 176.20558594 166.88525391 176.19628906 C165.85464844 176.17888672 165.85464844 176.17888672 164.80322266 176.16113281 C164.84962891 177.23492187 164.89603516 178.30871094 164.94384766 179.41503906 C165.38761997 193.85288329 165.38761997 193.85288329 160.80322266 199.16113281 C157.08483085 202.78656482 154.14544106 203.42551805 149.11572266 203.53613281 C143.22183584 203.34434175 137.55406614 202.42903531 131.80322266 201.16113281 C131.83802734 202.09054688 131.87283203 203.01996094 131.90869141 203.97753906 C132.09396646 212.43843339 131.80170494 217.48350046 127.24072266 224.59863281 C123.29099109 227.13051202 119.37625946 226.62681737 114.80322266 226.16113281 C110.23175102 225.09571822 105.82857503 223.61880809 101.38647461 222.10961914 C100.06673726 221.67313872 98.74657443 221.23794305 97.42602539 220.80392456 C93.86576049 219.62944093 90.31200185 218.43634601 86.75937676 217.23898149 C83.02754048 215.98405449 79.29064372 214.74436254 75.55448914 213.50236511 C69.28446964 211.41536575 63.01861962 209.31621718 56.75512695 207.2097168 C49.52817452 204.77935676 42.2949959 202.36832234 35.05816871 199.96754056 C28.07589559 197.65071453 21.09822984 195.32030215 14.12254906 192.98370934 C11.1628625 191.99258237 8.20166658 191.00617376 5.23913002 190.02359962 C1.74775114 188.86493743 -1.73941558 187.69436983 -5.22376251 186.51473618 C-7.1030725 185.881566 -8.98630164 185.26006514 -10.86964417 184.63899231 C-18.66016851 181.98372291 -26.14324818 179.38795788 -30.07177734 171.59863281 C-30.46107422 170.85484375 -30.85037109 170.11105469 -31.25146484 169.34472656 C-32.82454296 165.71104613 -33.32139709 162.52576319 -33.31030273 158.57617188 C-33.3102272 157.67554016 -33.31015167 156.77490845 -33.31007385 155.84698486 C-33.30491257 154.88330994 -33.29975128 153.91963501 -33.29443359 152.92675781 C-33.29301865 151.93359558 -33.2916037 150.94043335 -33.29014587 149.91717529 C-33.28455322 146.74846369 -33.27200204 143.57982302 -33.25927734 140.41113281 C-33.25426139 138.26139425 -33.24969865 136.11165458 -33.24560547 133.96191406 C-33.23458619 128.69495969 -33.21732657 123.42805828 -33.19677734 118.16113281 C-28.24677734 117.66613281 -28.24677734 117.66613281 -23.19677734 117.16113281 C-25.83677734 116.50113281 -28.47677734 115.84113281 -31.19677734 115.16113281 C-30.53677734 114.17113281 -29.87677734 113.18113281 -29.19677734 112.16113281 C-34.47677734 111.83113281 -39.75677734 111.50113281 -45.19677734 111.16113281 C-45.19677734 109.84113281 -45.19677734 108.52113281 -45.19677734 107.16113281 C-43.57350864 106.49026161 -41.94810156 105.82456252 -40.32177734 105.16113281 C-39.41685547 104.78988281 -38.51193359 104.41863281 -37.57958984 104.03613281 C-35.19677734 103.16113281 -35.19677734 103.16113281 -33.19677734 103.16113281 C-33.20343918 102.272435 -33.21010101 101.38373718 -33.21696472 100.46810913 C-33.27714389 92.08180499 -33.32278636 83.69557367 -33.35221386 75.30910301 C-33.36785159 70.99780419 -33.3890551 66.6866842 -33.4230957 62.37548828 C-33.45575694 58.21280796 -33.4736446 54.05029936 -33.48140907 49.88750076 C-33.48694047 48.30151289 -33.497742 46.71553412 -33.51396751 45.1296196 C-33.53583225 42.90342855 -33.53874058 40.67794178 -33.53735352 38.45166016 C-33.54734627 36.55303726 -33.54734627 36.55303726 -33.55754089 34.61605835 C-32.99893111 29.26641806 -30.96666796 25.32457214 -26.82177734 21.91113281 C-21.27289397 17.48592728 -17.15394841 16.92529651 -10.19677734 17.16113281 C-10.08720703 16.50886719 -9.97763672 15.85660156 -9.86474609 15.18457031 C-7.12121532 0.06169336 -7.12121532 0.06169336 0 0 Z " fill="#EC6920" transform="translate(57.19677734375,6.8388671875)"/>
<path d="M0 0 C2.48620049 1.06551449 4.03717151 2.03837059 5.9375 4 C9.80345064 7.74880063 13.71323647 8.24999526 18.95507812 8.24723816 C20.1506282 8.25143265 21.34617828 8.25562714 22.57795715 8.25994873 C24.53483711 8.25151947 24.53483711 8.25151947 26.53125 8.24291992 C27.92693674 8.24399382 29.32262303 8.24593411 30.7183075 8.24867249 C34.51641019 8.25352468 38.31439545 8.24584617 42.11248398 8.23571944 C46.1339884 8.22687524 50.15548978 8.22869808 54.17700195 8.2290802 C60.97300134 8.22814195 67.76895628 8.21946123 74.56494141 8.20581055 C81.45004153 8.19202703 88.33510072 8.184781 95.22021484 8.18530273 C132.49011172 8.18789381 169.74348878 8.13758997 207 7 C207 6.34 207 5.68 207 5 C208.65 5 210.3 5 212 5 C209.94766315 7.2477975 208.99332739 8.0022242 206 9 C204.27204648 9.06802967 202.54164635 9.08495645 200.8125 9.0625 C199.91144531 9.05347656 199.01039063 9.04445312 198.08203125 9.03515625 C197.39496094 9.02355469 196.70789063 9.01195312 196 9 C196.04640625 10.07378906 196.0928125 11.14757812 196.140625 12.25390625 C196.58439731 26.69175048 196.58439731 26.69175048 192 32 C188.28160819 35.62543201 185.3422184 36.26438524 180.3125 36.375 C174.41861318 36.18320894 168.75084348 35.2679025 163 34 C163.03480469 34.92941406 163.06960937 35.85882813 163.10546875 36.81640625 C163.29074381 45.27730057 162.99848228 50.32236764 158.4375 57.4375 C154.48776843 59.96937921 150.5730368 59.46568456 146 59 C141.42852836 57.9345854 137.02535238 56.45767527 132.58325195 54.94848633 C131.26351461 54.51200591 129.94335177 54.07681024 128.62280273 53.64279175 C125.06253783 52.46830812 121.50877919 51.2752132 117.95615411 50.07784867 C114.22431783 48.82292168 110.48742107 47.58322973 106.75126648 46.3412323 C100.48124698 44.25423294 94.21539697 42.15508436 87.9519043 40.04858398 C80.72495187 37.61822395 73.49177325 35.20718953 66.25494605 32.80640775 C59.27267294 30.48958172 52.29500718 28.15916934 45.3193264 25.82257652 C42.35963984 24.83144956 39.39844392 23.84504095 36.43590736 22.86246681 C32.94452848 21.70380462 29.45736176 20.53323702 25.97301483 19.35360336 C24.09370484 18.72043319 22.2104757 18.09893233 20.32713318 17.4778595 C5.08720663 12.28358646 5.08720663 12.28358646 1.5625 5.3125 C0 2 0 2 0 0 Z " fill="#FACB09" transform="translate(26,174)"/>
<path d="M0 0 C2.73806174 1.07863038 3.49014636 2.3371143 5.0625 4.8125 C8.80304527 16.57272879 9.85239415 29.59225587 11.70678711 41.75585938 C12.25313999 45.33305884 12.80880049 48.90873133 13.36523438 52.484375 C13.71670171 54.77074795 14.06763251 57.05720346 14.41796875 59.34375 C14.58354782 60.40630005 14.74912689 61.4688501 14.91972351 62.56359863 C15.6439691 67.35445232 16.28139923 71.94992131 16.0625 76.8125 C16.7225 76.8125 17.3825 76.8125 18.0625 76.8125 C18.23664429 75.74696899 18.23664429 75.74696899 18.41430664 74.65991211 C19.69647574 66.88293469 21.05581668 59.12351297 22.5 51.375 C22.80647461 49.65893555 22.80647461 49.65893555 23.11914062 47.90820312 C23.32603516 46.80541016 23.53292969 45.70261719 23.74609375 44.56640625 C24.01764282 43.08636108 24.01764282 43.08636108 24.29467773 41.57641602 C25.1335962 38.55657627 26.23265964 36.35253808 28.0625 33.8125 C30.5 33.1875 30.5 33.1875 33.0625 33.8125 C37.52683824 38.16817281 38.96653189 43.58753346 40.8125 49.375 C41.28623047 50.79329102 41.28623047 50.79329102 41.76953125 52.24023438 C43.11168446 56.35094172 44.0625 59.44093334 44.0625 63.8125 C53.9625 63.8125 63.8625 63.8125 74.0625 63.8125 C74.7225 62.4925 75.3825 61.1725 76.0625 59.8125 C79.56567094 58.06091453 83.24944726 58.1287802 87.0625 58.8125 C90.6619734 61.82430427 91.86334148 63.69721231 92.6875 68.3125 C92.06828678 71.78009402 91.25777359 74.09976345 88.828125 76.7109375 C85.28645514 78.92056339 81.03736363 78.68158035 77.0625 77.8125 C75.2578125 76.40234375 75.2578125 76.40234375 74.0625 74.8125 C74.0625 74.1525 74.0625 73.4925 74.0625 72.8125 C73.04824951 72.82821045 72.03399902 72.8439209 70.98901367 72.86010742 C67.22639913 72.91440319 63.46381922 72.94884851 59.70092773 72.97729492 C58.07228777 72.99238243 56.44368844 73.01285506 54.81518555 73.03881836 C52.47434465 73.07520449 50.13404081 73.0922262 47.79296875 73.10546875 C47.06474411 73.12095261 46.33651947 73.13643646 45.58622742 73.15238953 C40.5006338 73.15408298 40.5006338 73.15408298 38.43281555 71.54194641 C36.91531064 69.6267354 36.32847744 68.14695943 35.67578125 65.80078125 C35.45986328 65.04345703 35.24394531 64.28613281 35.02148438 63.50585938 C34.80814453 62.72017578 34.59480469 61.93449219 34.375 61.125 C34.03758789 59.92907227 34.03758789 59.92907227 33.69335938 58.70898438 C33.14089099 56.74595841 32.60051131 54.77953739 32.0625 52.8125 C31.80557373 53.93744873 31.54864746 55.06239746 31.28393555 56.22143555 C30.32546488 60.407417 29.35549225 64.59066349 28.38208008 68.77319336 C27.96293586 70.58139027 27.54688532 72.39030727 27.1340332 74.19995117 C26.53895266 76.80584541 25.93267567 79.40891967 25.32421875 82.01171875 C25.14283859 82.81711594 24.96145844 83.62251312 24.77458191 84.45231628 C23.76968991 88.69842712 22.72659872 92.25735517 20.0625 95.8125 C17.625 96.875 17.625 96.875 15.0625 96.8125 C10.98421055 94.01595866 10.11219698 90.40852798 9.0625 85.8125 C8.3547807 81.99523208 7.76760972 78.16270606 7.1875 74.32421875 C7.01750488 73.22584183 6.84750977 72.1274649 6.67236328 70.99580383 C6.13153302 67.49783572 5.59661735 63.99899889 5.0625 60.5 C4.52760544 57.01184059 3.99138545 53.52389745 3.45263672 50.03633118 C3.11850933 47.87181714 2.78666453 45.70694903 2.45751953 43.54167175 C1.49074418 37.2603266 0.3685349 31.03230884 -0.9375 24.8125 C-1.19442627 25.95614014 -1.45135254 27.09978027 -1.71606445 28.27807617 C-2.68297246 32.5815464 -3.65037685 36.88490493 -4.61791992 41.18823242 C-5.03406784 43.03943967 -5.45008684 44.8906759 -5.8659668 46.74194336 C-6.06681885 47.63598877 -6.2676709 48.53003418 -6.47460938 49.45117188 C-6.67367889 50.33757355 -6.87274841 51.22397522 -7.07785034 52.13723755 C-7.47517499 53.90196896 -7.87402996 55.66635654 -8.27444458 57.4303894 C-9.14155579 61.25136605 -9.99915707 65.07205651 -10.79443359 68.90869141 C-11.0414502 70.06933105 -11.2884668 71.2299707 -11.54296875 72.42578125 C-11.7443042 73.40973877 -11.94563965 74.39369629 -12.15307617 75.4074707 C-13.00185393 78.009808 -13.74562834 79.19354646 -15.9375 80.8125 C-18.46875 80.765625 -18.46875 80.765625 -20.9375 79.8125 C-22.34375 77.984375 -22.34375 77.984375 -23.4375 75.5625 C-23.84355469 74.67304687 -24.24960938 73.78359375 -24.66796875 72.8671875 C-26.87428907 67.55844138 -28.95051313 62.20695796 -30.9375 56.8125 C-31.40929687 58.16794922 -31.40929687 58.16794922 -31.890625 59.55078125 C-32.31859375 60.73027344 -32.7465625 61.90976563 -33.1875 63.125 C-33.60515625 64.29675781 -34.0228125 65.46851562 -34.453125 66.67578125 C-36.03010221 70.0081831 -36.81552125 70.99773963 -39.9375 72.8125 C-42.6963501 73.17326355 -42.6963501 73.17326355 -45.89941406 73.15307617 C-47.10035706 73.15284958 -48.30130005 73.15262299 -49.53863525 73.15238953 C-50.83041687 73.13690567 -52.12219849 73.12142181 -53.453125 73.10546875 C-54.79261805 73.09987052 -56.13211726 73.09560149 -57.47161865 73.09260559 C-60.98987921 73.08117454 -64.50776571 73.05172294 -68.02587891 73.01849365 C-71.61876364 72.98775489 -75.21170906 72.97409216 -78.8046875 72.95898438 C-85.84911096 72.92685113 -92.893281 72.87567621 -99.9375 72.8125 C-99.9375 72.4825 -99.9375 72.1525 -99.9375 71.8125 C-94.9875 71.3175 -94.9875 71.3175 -89.9375 70.8125 C-92.5775 70.1525 -95.2175 69.4925 -97.9375 68.8125 C-97.2775 67.8225 -96.6175 66.8325 -95.9375 65.8125 C-101.2175 65.4825 -106.4975 65.1525 -111.9375 64.8125 C-111.9375 64.4825 -111.9375 64.1525 -111.9375 63.8125 C-89.1675 63.8125 -66.3975 63.8125 -42.9375 63.8125 C-41.9475 60.5125 -40.9575 57.2125 -39.9375 53.8125 C-39.28279199 51.96720198 -38.60370899 50.12984712 -37.875 48.3125 C-37.55402344 47.4978125 -37.23304687 46.683125 -36.90234375 45.84375 C-35.9375 43.8125 -35.9375 43.8125 -33.9375 41.8125 C-31.125 41.5625 -31.125 41.5625 -27.9375 42.8125 C-23.78257869 48.7532041 -21.5995581 56.11301449 -18.9375 62.8125 C-18.7516333 61.90298584 -18.5657666 60.99347168 -18.37426758 60.05639648 C-16.70186182 51.88093498 -15.02142948 43.70718958 -13.32858276 35.53593445 C-12.60294877 32.03320519 -11.87978206 28.53006444 -11.16357422 25.02539062 C-10.51372341 21.84834224 -9.85253972 18.67389746 -9.1875 15.5 C-9.0016333 14.57823975 -8.8157666 13.65647949 -8.62426758 12.70678711 C-7.67524433 8.24082031 -6.75421691 4.52611888 -3.9375 0.8125 C-1.9375 -0.1875 -1.9375 -0.1875 0 0 Z " fill="#FDF7EF" transform="translate(123.9375,53.1875)"/>
<path d="M0 0 C2.73527076 1.2958721 5.10534856 2.7703876 7.5625 4.52734375 C12.50682653 7.63693288 17.27201324 8.06317305 23 8.5625 C25.16712048 8.79264107 27.33378306 9.02712914 29.5 9.265625 C31.1396875 9.44254883 31.1396875 9.44254883 32.8125 9.62304688 C37.57239308 10.1859509 42.27988238 10.98600251 47 11.8125 C57.85479195 13.68043567 68.73315987 15.36488435 79.625 17 C80.48039368 17.12858398 81.33578735 17.25716797 82.21710205 17.38964844 C95.18988301 19.33444806 108.17576714 21.14920267 121.18994141 22.79492188 C122.33124512 22.94123047 123.47254883 23.08753906 124.6484375 23.23828125 C125.64020996 23.36243408 126.63198242 23.48658691 127.65380859 23.61450195 C130 24 130 24 132 25 C133.84741209 25.27852449 135.70193057 25.51064147 137.55859375 25.71875 C138.66654297 25.84636719 139.77449219 25.97398437 140.91601562 26.10546875 C142.07810547 26.23566406 143.24019531 26.36585938 144.4375 26.5 C146.72819478 26.75749602 149.01857781 27.01778506 151.30859375 27.28125 C152.83697876 27.45237305 152.83697876 27.45237305 154.39624023 27.62695312 C157 28 157 28 160 29 C160.08115993 32.06303578 160.14057409 35.12390815 160.1875 38.1875 C160.21263672 39.05181641 160.23777344 39.91613281 160.26367188 40.80664062 C160.31980871 45.69054544 160.26570457 49.07963204 157 53 C152.65531992 55.89645339 149.10521469 55.55001882 144 55 C139.42921155 53.93141331 135.02544888 52.45770806 130.58325195 50.94848633 C129.26351461 50.51200591 127.94335177 50.07681024 126.62280273 49.64279175 C123.06253783 48.46830812 119.50877919 47.2752132 115.95615411 46.07784867 C112.22431783 44.82292168 108.48742107 43.58322973 104.75126648 42.3412323 C98.48124698 40.25423294 92.21539697 38.15508436 85.9519043 36.04858398 C78.72495187 33.61822395 71.49177325 31.20718953 64.25494605 28.80640775 C57.27267294 26.48958172 50.29500718 24.15916934 43.3193264 21.82257652 C40.35963984 20.83144956 37.39844392 19.84504095 34.43590736 18.86246681 C30.94452848 17.70380462 27.45736176 16.53323702 23.97301483 15.35360336 C22.09370484 14.72043319 20.2104757 14.09893233 18.32713318 13.4778595 C3.80296528 8.52754077 3.80296528 8.52754077 0.5625 2.1875 C0.376875 1.465625 0.19125 0.74375 0 0 Z " fill="#087ABD" transform="translate(28,178)"/>
<path d="M0 0 C2 3 2 3 3 6 C3.6447613 6.00331015 4.28952261 6.00662029 4.95382214 6.01003075 C20.64463583 6.09126255 36.33534254 6.18335557 52.0260191 6.28752708 C59.61392388 6.33764199 67.20181792 6.38408503 74.78979492 6.421875 C81.40372366 6.4548233 88.01756877 6.49467019 94.63140517 6.54279006 C98.13315421 6.56802688 101.63484796 6.58981643 105.13666344 6.60334396 C109.04653189 6.6185771 112.95619736 6.64921227 116.8659668 6.68115234 C118.02618347 6.68331253 119.18640015 6.68547272 120.3817749 6.68769836 C121.98236 6.70444359 121.98236 6.70444359 123.61528015 6.7215271 C125.0021177 6.72982324 125.0021177 6.72982324 126.41697216 6.73828697 C129.24621946 7.02494702 131.42113943 7.82873615 134 9 C134 9.33 134 9.66 134 10 C116.82390046 10.0700103 99.64784529 10.12294892 82.47163582 10.15543652 C74.49682986 10.17092048 66.52211243 10.19203905 58.54736328 10.22631836 C51.5984173 10.25617409 44.64953541 10.27556387 37.70052707 10.28226548 C34.019378 10.28618428 30.33841235 10.29542534 26.65732193 10.31719017 C22.55287714 10.34126238 18.44875337 10.34197247 14.34423828 10.34057617 C13.11713135 10.351362 11.89002441 10.36214783 10.62573242 10.3732605 C8.95560593 10.36707451 8.95560593 10.36707451 7.2517395 10.36076355 C5.79438479 10.36491162 5.79438479 10.36491162 4.30758858 10.36914349 C3.16533223 10.18641746 3.16533223 10.18641746 2 10 C-1.06666667 5.4 -1.06666667 5.4 -0.5625 2.375 C-0.376875 1.59125 -0.19125 0.8075 0 0 Z " fill="#E98750" transform="translate(102,17)"/>
<path d="M0 0 C2.48620049 1.06551449 4.03717151 2.03837059 5.9375 4 C9.80345064 7.74880063 13.71323647 8.24999526 18.95507812 8.24723816 C20.1506282 8.25143265 21.34617828 8.25562714 22.57795715 8.25994873 C24.53483711 8.25151947 24.53483711 8.25151947 26.53125 8.24291992 C27.92693674 8.24399382 29.32262303 8.24593411 30.7183075 8.24867249 C34.51641019 8.25352468 38.31439545 8.24584617 42.11248398 8.23571944 C46.1339884 8.22687524 50.15548978 8.22869808 54.17700195 8.2290802 C60.97300134 8.22814195 67.76895628 8.21946123 74.56494141 8.20581055 C81.45004153 8.19202703 88.33510072 8.184781 95.22021484 8.18530273 C132.49011172 8.18789381 169.74348878 8.13758997 207 7 C207 6.34 207 5.68 207 5 C208.65 5 210.3 5 212 5 C209.94766315 7.2477975 208.99332739 8.0022242 206 9 C204.27204648 9.06802967 202.54164635 9.08495645 200.8125 9.0625 C199.91144531 9.05347656 199.01039063 9.04445312 198.08203125 9.03515625 C197.39496094 9.02355469 196.70789063 9.01195312 196 9 C196.02320313 10.12019531 196.04640625 11.24039063 196.0703125 12.39453125 C196.08907237 13.86718084 196.10727234 15.33983763 196.125 16.8125 C196.14175781 17.55048828 196.15851563 18.28847656 196.17578125 19.04882812 C196.21074628 22.91246426 196.19397555 24.70903668 194 28 C194 22.39 194 16.78 194 11 C139.88 10.67 85.76 10.34 30 10 C30 10.99 30 11.98 30 13 C30.88051025 12.96519531 30.88051025 12.96519531 31.77880859 12.9296875 C38.61261232 12.77987618 44.93384878 13.67784996 51.625 15 C52.62917969 15.19078125 53.63335937 15.3815625 54.66796875 15.578125 C57.11366256 16.04397144 59.55744281 16.51802598 62 17 C62 17.33 62 17.66 62 18 C56.75053999 18.12087572 52.16125205 17.79105718 47 16.6875 C41.98349069 15.64668465 37.00273908 14.85227201 31.90625 14.30859375 C30.84792969 14.19362549 29.78960937 14.07865723 28.69921875 13.96020508 C26.60977847 13.74127944 24.51855864 13.5385627 22.42578125 13.35424805 C15.71924453 12.63940831 11.42208534 10.94960037 6 7 C5.030625 6.484375 4.06125 5.96875 3.0625 5.4375 C1 4 1 4 0.1875 1.8125 C0.125625 1.214375 0.06375 0.61625 0 0 Z " fill="#F0C434" transform="translate(26,174)"/>
<path d="M0 0 C0.91711258 0.02664734 1.83422516 0.05329468 2.77912903 0.08074951 C3.81998154 0.10107239 4.86083405 0.12139526 5.93322754 0.14233398 C7.05518021 0.18485291 8.17713287 0.22737183 9.33308411 0.2711792 C10.4830336 0.29903503 11.63298309 0.32689087 12.81777954 0.35559082 C16.49685577 0.44908736 20.17439514 0.57074264 23.85261536 0.6930542 C26.34410172 0.7613141 28.83563896 0.82774361 31.32722473 0.89227295 C37.44060416 1.05461849 43.55295667 1.24009996 49.66511536 1.4430542 C49.33511536 3.4230542 49.00511536 5.4030542 48.66511536 7.4430542 C43.22487789 7.51813179 37.7849528 7.57208682 32.34431458 7.60784912 C30.49985998 7.62278333 28.65543993 7.64313815 26.81111145 7.66937256 C15.64664663 7.82401343 5.49696443 7.46502425 -5.33488464 4.4430542 C-3.02530814 0.57406497 -3.02530814 0.57406497 0 0 Z " fill="#FEFEFD" transform="translate(31.334884643554688,117.55694580078125)"/>
<path d="M0 0 C3.31779278 3.31779278 3.12632786 6.75143678 3.14717102 11.28656006 C3.15432632 12.35750916 3.16148163 13.42845825 3.16885376 14.53186035 C3.17154266 15.70180542 3.17423157 16.87175049 3.17700195 18.07714844 C3.18357315 19.31333923 3.19014435 20.54953003 3.19691467 21.82318115 C3.21664314 25.91858158 3.22831264 30.01394287 3.23828125 34.109375 C3.2423306 35.52201608 3.24644757 36.93465698 3.25063133 38.34729767 C3.26967264 44.98518887 3.28390583 51.62306903 3.2922433 58.26098228 C3.30201182 65.91086132 3.32832543 73.56045071 3.36874419 81.21022773 C3.39895087 87.13140596 3.41371647 93.05250136 3.41702431 98.97375512 C3.41936963 102.50641517 3.42826179 106.03876541 3.45348549 109.57134247 C3.48119819 113.51607938 3.47692112 117.46043812 3.4699707 121.40527344 C3.48278076 122.56712158 3.49559082 123.72896973 3.50878906 124.92602539 C3.46497827 131.75415565 2.58620255 136.15320168 -1 142 C-1.33 140.68 -1.66 139.36 -2 138 C-1.34 138 -0.68 138 0 138 C0 92.46 0 46.92 0 0 Z " fill="#E89C6E" transform="translate(243,34)"/>
<path d="M0 0 C2.73527076 1.2958721 5.10534856 2.7703876 7.5625 4.52734375 C12.50652677 7.63674435 17.27203073 8.06394671 23 8.5625 C25.13198339 8.78722391 27.263488 9.01652906 29.39453125 9.25 C31.02769287 9.42595703 31.02769287 9.42595703 32.69384766 9.60546875 C38.05546167 10.24528327 43.36743303 11.14511653 48.6875 12.0625 C49.68716797 12.23370361 50.68683594 12.40490723 51.71679688 12.58129883 C53.61651107 12.90707757 55.51609521 13.23361591 57.41552734 13.56103516 C62.59984995 14.44157663 67.79850981 15.2279038 73 16 C73 16.33 73 16.66 73 17 C68.38 17 63.76 17 59 17 C59 16.34 59 15.68 59 15 C54.38 15 49.76 15 45 15 C45 14.34 45 13.68 45 13 C43.96939453 13.01740234 43.96939453 13.01740234 42.91796875 13.03515625 C42.01691406 13.04417969 41.11585937 13.05320313 40.1875 13.0625 C38.84751953 13.07990234 38.84751953 13.07990234 37.48046875 13.09765625 C35 13 35 13 32 12 C29.77425665 11.77548542 27.54418481 11.59217122 25.3125 11.4375 C24.13300781 11.35371094 22.95351563 11.26992187 21.73828125 11.18359375 C20.83464844 11.12300781 19.93101563 11.06242188 19 11 C19.33 11.66 19.66 12.32 20 13 C12.96587335 11.43544742 7.4322154 9.85432014 2 5 C0.5625 2.1875 0.5625 2.1875 0 0 Z " fill="#217787" transform="translate(28,178)"/>
<path d="M0 0 C0.33 0 0.66 0 1 0 C7.75052513 38.07092961 7.75052513 38.07092961 9 53 C6.00960444 49.68977604 5.58063433 47.27990372 5.375 42.875 C5.27524566 38.78441077 5.27524566 38.78441077 4 35 C3.82149696 33.39913938 3.68051527 31.79395275 3.5625 30.1875 C3.1280637 24.83969895 3.1280637 24.83969895 1 20 C-1.54775306 19.10613836 -1.54775306 19.10613836 -4 19 C-2.42105263 2.42105263 -2.42105263 2.42105263 0 0 Z " fill="#E1773A" transform="translate(123,77)"/>
<path d="M0 0 C1.24546405 2.49092811 0.7767578 3.41080733 0 6 C-0.66 6 -1.32 6 -2 6 C-1.67 8.64 -1.34 11.28 -1 14 C-1.66 13.67 -2.32 13.34 -3 13 C-3.33 36.1 -3.66 59.2 -4 83 C-6.97 83.495 -6.97 83.495 -10 84 C-10.66 83.34 -11.32 82.68 -12 82 C-8.535 81.01 -8.535 81.01 -5 80 C-5.00666183 79.11130219 -5.01332367 78.22260437 -5.02018738 77.30697632 C-5.08036655 68.92067218 -5.12600902 60.53444085 -5.15543652 52.1479702 C-5.17107424 47.83667137 -5.19227776 43.52555138 -5.22631836 39.21435547 C-5.25897959 35.05167515 -5.27686726 30.88916655 -5.28463173 26.72636795 C-5.29016312 25.14038008 -5.30096466 23.55440131 -5.31719017 21.96848679 C-5.33905491 19.74229573 -5.34196323 17.51680897 -5.34057617 15.29052734 C-5.34723801 14.02477875 -5.35389984 12.75903015 -5.36076355 11.45492554 C-4.86568566 6.7137114 -3.37214789 3.37214789 0 0 Z " fill="#EB9464" transform="translate(29,30)"/>
<path d="M0 0 C6.35368197 -0.07597749 12.70724709 -0.12856897 19.0612793 -0.16479492 C21.22343321 -0.17989444 23.38555643 -0.20037571 25.54760742 -0.22631836 C28.652909 -0.26265017 31.75780614 -0.27971462 34.86328125 -0.29296875 C35.83211746 -0.30845261 36.80095367 -0.32393646 37.79914856 -0.33988953 C39.15020943 -0.34022942 39.15020943 -0.34022942 40.52856445 -0.34057617 C41.32132278 -0.34723801 42.11408112 -0.35389984 42.93086243 -0.36076355 C45.55504136 0.09677399 46.41220615 0.89141053 48 3 C48.6875 6.1875 48.6875 6.1875 49 9 C47.62437146 7.71034824 46.29233607 6.37310707 45 5 C45 4.34 45 3.68 45 3 C38.62793828 2.97470175 32.25588946 2.95715504 25.88378906 2.94506836 C23.71483883 2.94003109 21.545892 2.93320109 19.37695312 2.92456055 C16.26431437 2.91246849 13.1517204 2.90676572 10.0390625 2.90234375 C9.065065 2.89718246 8.0910675 2.89202118 7.08755493 2.88670349 C5.73638077 2.88659019 5.73638077 2.88659019 4.35791016 2.88647461 C3.56293121 2.884254 2.76795227 2.88203339 1.94888306 2.87974548 C-0.08089567 2.87741475 -0.08089567 2.87741475 -2 4 C-1.34 2.68 -0.68 1.36 0 0 Z " fill="#D97F4D" transform="translate(53,7)"/>
<path d="M0 0 C0 0.66 0 1.32 0 2 C20.46 2.33 40.92 2.66 62 3 C62 3.33 62 3.66 62 4 C39.23 4 16.46 4 -7 4 C-7 3.01 -7 2.02 -7 1 C-4 0 -4 0 0 0 Z " fill="#D1723E" transform="translate(19,113)"/>
<path d="M0 0 C0.66 0 1.32 0 2 0 C-0.21814448 13.43510272 -3.03167233 26.71210942 -6 40 C-6.66 40 -7.32 40 -8 40 C-8.33 35.71 -8.66 31.42 -9 27 C-8.01 28.32 -7.02 29.64 -6 31 C-5.93941406 30.28972656 -5.87882813 29.57945313 -5.81640625 28.84765625 C-5.69072266 27.46900391 -5.69072266 27.46900391 -5.5625 26.0625 C-5.48128906 25.14597656 -5.40007812 24.22945312 -5.31640625 23.28515625 C-5 21 -5 21 -4 20 C-3.83957845 18.33636912 -3.72232982 16.66851122 -3.625 15 C-3.1969297 9.63157733 -1.96165372 4.99666513 0 0 Z " fill="#DB7B45" transform="translate(148,90)"/>
<path d="M0 0 C0.33 0 0.66 0 1 0 C0.41510891 7.84664137 -0.96479306 15.42736434 -2.5625 23.125 C-2.79646484 24.27226563 -3.03042969 25.41953125 -3.27148438 26.6015625 C-3.84323624 29.4019798 -4.4194879 32.20138797 -5 35 C-8.28220895 33.35889552 -8.74570789 30.30677012 -10 27 C-10 26.01 -10 25.02 -10 24 C-8.02 23.67 -6.04 23.34 -4 23 C-3.96261719 22.42894531 -3.92523438 21.85789062 -3.88671875 21.26953125 C-3.29680315 13.99390548 -1.76303958 7.07433492 0 0 Z " fill="#DD7A41" transform="translate(111,82)"/>
<path d="M0 0 C26.62824207 1.31412104 26.62824207 1.31412104 32 4 C33.70363822 4.22622081 35.41328701 4.40888473 37.125 4.5625 C38.03507812 4.64628906 38.94515625 4.73007813 39.8828125 4.81640625 C40.58148438 4.87699219 41.28015625 4.93757812 42 5 C42 5.33 42 5.66 42 6 C36.39 6 30.78 6 25 6 C25 5.34 25 4.68 25 4 C23.96939453 4.01740234 23.96939453 4.01740234 22.91796875 4.03515625 C22.01691406 4.04417969 21.11585938 4.05320313 20.1875 4.0625 C18.84751953 4.07990234 18.84751953 4.07990234 17.48046875 4.09765625 C15 4 15 4 12 3 C9.94106379 2.77674186 7.87766347 2.59294241 5.8125 2.4375 C4.18248047 2.31181641 4.18248047 2.31181641 2.51953125 2.18359375 C1.68808594 2.12300781 0.85664063 2.06242188 0 2 C0 1.34 0 0.68 0 0 Z " fill="#287A85" transform="translate(128,199)"/>
<path d="M0 0 C2.77103458 1.31808061 5.23017192 2.81840412 7.75 4.5625 C11.87570279 7.19922734 15.1463741 7.73998433 20 8 C20 9.32 20 10.64 20 12 C18 13 18 13 15.57421875 12.36328125 C3.39911415 7.93147728 3.39911415 7.93147728 0.6875 2.25 C0.460625 1.5075 0.23375 0.765 0 0 Z " fill="#3A8AAA" transform="translate(28,178)"/>
<path d="M0 0 C1.65 0 3.3 0 5 0 C2.55116778 2.68205434 0.71806861 3.8982827 -3.03117371 4.12025452 C-3.80616714 4.11803391 -4.58116058 4.11581329 -5.37963867 4.11352539 C-6.26032516 4.11344986 -7.14101166 4.11337433 -8.04838562 4.11329651 C-8.99534805 4.10813522 -9.94231049 4.10297394 -10.91796875 4.09765625 C-11.89034988 4.0962413 -12.86273102 4.09482635 -13.86457825 4.09336853 C-16.97225004 4.08776817 -20.07984996 4.07521562 -23.1875 4.0625 C-25.29361875 4.05748505 -27.39973863 4.05292213 -29.50585938 4.04882812 C-34.67060064 4.03779862 -39.83528813 4.02053375 -45 4 C-45 3.67 -45 3.34 -45 3 C-22.725 2.505 -22.725 2.505 0 2 C0 1.34 0 0.68 0 0 Z " fill="#EC9732" transform="translate(233,179)"/>
<path d="M0 0 C2.27141109 0.11402064 4.54214552 0.24158505 6.8125 0.375 C8.07707031 0.44460937 9.34164062 0.51421875 10.64453125 0.5859375 C14 1 14 1 17 3 C16.34 3 15.68 3 15 3 C15.66 4.65 16.32 6.3 17 8 C4.9424913 5.02257666 4.9424913 5.02257666 1 2 C0.67 1.34 0.34 0.68 0 0 Z " fill="#3890C3" transform="translate(46,188)"/>
<path d="M0 0 C2.5625 2 2.5625 2 4 4 C3.67 4.66 3.34 5.32 3 6 C2.484375 5.34 1.96875 4.68 1.4375 4 C-0.93103111 1.68384736 -0.93103111 1.68384736 -4.5 1.625 C-7.61332584 1.95857063 -9.40424019 2.33871372 -12 4 C-12 4.66 -12 5.32 -12 6 C-21.9 6 -31.8 6 -42 6 C-42 5.67 -42 5.34 -42 5 C-32.43 5 -22.86 5 -13 5 C-12.34 3.68 -11.68 2.36 -11 1 C-7.55789151 -0.72105424 -3.76366353 -0.51474617 0 0 Z " fill="#FEE4C9" transform="translate(211,112)"/>
<path d="M0 0 C2.44978758 1.04990896 3.95342827 1.94846061 5.7578125 3.9453125 C8.4399129 6.40312575 10.65069895 7.10917242 14.125 8.125 C19.80555556 9.80555556 19.80555556 9.80555556 22 12 C14.97130745 12.62756184 11.65397181 11.01093727 6 7 C5.030625 6.484375 4.06125 5.96875 3.0625 5.4375 C1 4 1 4 0.1875 1.8125 C0.125625 1.214375 0.06375 0.61625 0 0 Z " fill="#CFBF45" transform="translate(26,174)"/>
<path d="M0 0 C0.33 0 0.66 0 1 0 C1.87981748 4.38952417 2.55084363 7.76715949 0.6875 11.9375 C-3.16983496 14.89778032 -7.18725182 15.67606503 -12 16 C-14.3125 15.5390625 -14.3125 15.5390625 -16 15 C-11.50343896 12.75171948 -7.92127034 12.83317728 -3 13 C-2.86722656 12.31292969 -2.73445313 11.62585937 -2.59765625 10.91796875 C-2.42105469 10.01691406 -2.24445312 9.11585937 -2.0625 8.1875 C-1.80146484 6.84751953 -1.80146484 6.84751953 -1.53515625 5.48046875 C-1 3 -1 3 0 0 Z " fill="#EA986B" transform="translate(50,11)"/>
<path d="M0 0 C0.99 0.495 0.99 0.495 2 1 C4.55106029 1.15644172 7.07918663 1.25821389 9.6328125 1.31640625 C10.38464813 1.33718735 11.13648376 1.35796844 11.91110229 1.37937927 C14.31564085 1.44482705 16.72028967 1.50373738 19.125 1.5625 C20.75391771 1.60568977 22.38282422 1.64930421 24.01171875 1.69335938 C28.00769915 1.80050351 32.00379059 1.90178433 36 2 C36.66 3.32 37.32 4.64 38 6 C36.68 5.67 35.36 5.34 34 5 C34 4.34 34 3.68 34 3 C23.11 3 12.22 3 1 3 C0.67 2.01 0.34 1.02 0 0 Z " fill="#D7723A" transform="translate(162,124)"/>
<path d="M0 0 C1.98 0 3.96 0 6 0 C6 0.66 6 1.32 6 2 C7.0725 2.12375 8.145 2.2475 9.25 2.375 C12.37863615 2.89643936 14.33480424 3.40088254 17 5 C16.67 5.66 16.34 6.32 16 7 C4.47835991 3.92482916 4.47835991 3.92482916 -1 2 C-0.67 1.34 -0.34 0.68 0 0 Z " fill="#4697C6" transform="translate(119,213)"/>
<path d="M0 0 C0 0.66 0 1.32 0 2 C6.93 2.495 6.93 2.495 14 3 C14 3.33 14 3.66 14 4 C7.07 4 0.14 4 -7 4 C-7 3.01 -7 2.02 -7 1 C-4 0 -4 0 0 0 Z " fill="#D77C45" transform="translate(19,113)"/>
<path d="M0 0 C2.43787385 0.1409349 4.87517853 0.28754542 7.3125 0.4375 C8.00279297 0.47681641 8.69308594 0.51613281 9.40429688 0.55664062 C12.47161535 0.74927415 15.06968152 1.02322717 18 2 C18 6.95 18 11.9 18 17 C17.67 17 17.34 17 17 17 C17 12.71 17 8.42 17 4 C15.35 4 13.7 4 12 4 C11.67 3.67 11.34 3.34 11 3 C8.71315662 2.7180604 6.42636727 2.55222995 4.12890625 2.37890625 C2 2 2 2 0 0 Z " fill="#26788B" transform="translate(170,205)"/>
<path d="M0 0 C0.33 0 0.66 0 1 0 C1.09765625 6.15234375 1.09765625 6.15234375 1 8 C0.67 8.33 0.34 8.66 0 9 C-0.23150341 10.95124305 -0.46153897 12.90268753 -0.6796875 14.85546875 C-1.10525297 17.7046815 -1.99083812 20.30890166 -3 23 C-2.34 23.33 -1.68 23.66 -1 24 C-2.32 24 -3.64 24 -5 24 C-4.39496146 18.3444819 -3.37814297 12.99786009 -1.9375 7.5 C-1.75123047 6.77296875 -1.56496094 6.0459375 -1.37304688 5.296875 C-0.91973545 3.53012276 -0.4604998 1.76489225 0 0 Z " fill="#DF7945" transform="translate(152,120)"/>
<path d="M0 0 C9.14280961 0.43591815 18.02854522 1.0422461 27 3 C27 3.33 27 3.66 27 4 C25.06257659 4.02703381 23.12504521 4.04641125 21.1875 4.0625 C20.10855469 4.07410156 19.02960938 4.08570313 17.91796875 4.09765625 C15 4 15 4 12 3 C9.13484919 2.73533064 6.27024052 2.55603846 3.3984375 2.37890625 C2.60695312 2.25386719 1.81546875 2.12882813 1 2 C0.67 1.34 0.34 0.68 0 0 Z " fill="#297A7F" transform="translate(48,187)"/>
<path d="M0 0 C16.8929385 -0.55353075 16.8929385 -0.55353075 24 3 C20.82978983 3.99626083 18.5026511 3.96516845 15.234375 3.44140625 C13.90019531 3.23354492 13.90019531 3.23354492 12.5390625 3.02148438 C11.61867188 2.87001953 10.69828125 2.71855469 9.75 2.5625 C8.81414062 2.41490234 7.87828125 2.26730469 6.9140625 2.11523438 C4.60815669 1.75052478 2.30366712 1.37855026 0 1 C0 0.67 0 0.34 0 0 Z " fill="#CAC544" transform="translate(96,193)"/>
<path d="M0 0 C0.33 0 0.66 0 1 0 C0.85978195 2.64624284 0.71310224 5.29184578 0.5625 7.9375 C0.50352539 9.06961914 0.50352539 9.06961914 0.44335938 10.22460938 C0.11328125 15.88671875 0.11328125 15.88671875 -1 17 C-1.23075082 18.34747084 -1.41153063 19.70377565 -1.5625 21.0625 C-1.706875 22.361875 -1.85125 23.66125 -2 25 C-2.66 25 -3.32 25 -4 25 C-3.42029353 16.50430168 -1.76198299 8.31124051 0 0 Z " fill="#FDE7D4" transform="translate(113,77)"/>
<path d="M0 0 C6.21643357 0.49336774 12.33998541 1.19990821 18 4 C18.99 5.485 18.99 5.485 20 7 C13.24947898 5.22089072 6.59379663 3.29561809 0 1 C0 0.67 0 0.34 0 0 Z " fill="#59A3CA" transform="translate(79,201)"/>
<path d="M0 0 C2 1 2 1 3.1875 3.8125 C3.96421451 6.85961076 4.10096399 8.13749363 3 11 C2.01 11 1.02 11 0 11 C-0.99 11.495 -0.99 11.495 -2 12 C-1.34 8.04 -0.68 4.08 0 0 Z " fill="#DB7B4C" transform="translate(155,105)"/>
<path d="M0 0 C0.33 0 0.66 0 1 0 C1.36463732 1.74784829 1.7163078 3.49840502 2.0625 5.25 C2.25972656 6.22453125 2.45695312 7.1990625 2.66015625 8.203125 C2.98397535 10.868119 2.85503199 12.48871723 2 15 C2 14.01 2 13.02 2 12 C1.34 12 0.68 12 0 12 C0 11.01 0 10.02 0 9 C-0.66 9 -1.32 9 -2 9 C-1.125 1.125 -1.125 1.125 0 0 Z " fill="#DB7643" transform="translate(123,77)"/>
<path d="M0 0 C3.05383204 1.52691602 3.38086503 3.95216256 4.625 7.0625 C5.07101563 8.16722656 5.51703125 9.27195312 5.9765625 10.41015625 C6.31429687 11.26480469 6.65203125 12.11945313 7 13 C8.98 13 10.96 13 13 13 C12.01 14.485 12.01 14.485 11 16 C8.671875 15.796875 8.671875 15.796875 6 15 C4.453125 12.890625 4.453125 12.890625 3.25 10.25 C2.63898438 8.95835938 2.63898438 8.95835938 2.015625 7.640625 C1.03468313 5.09017614 0.44524427 2.69082408 0 0 Z " fill="#FEE7D0" transform="translate(97,118)"/>
<path d="M0 0 C2.89932357 2.39509338 3.50168276 4.31245243 4 8 C2.68 7.67 1.36 7.34 0 7 C-0.28875 7.804375 -0.5775 8.60875 -0.875 9.4375 C-2 12 -2 12 -4 13 C-3.52140759 11.39566191 -3.04210442 9.79153584 -2.5625 8.1875 C-2.29566406 7.29417969 -2.02882813 6.40085937 -1.75390625 5.48046875 C-1.19612127 3.64526945 -0.60655425 1.81966274 0 0 Z " fill="#DB7F4B" transform="translate(92,109)"/>
<path d="M0 0 C1.15154588 2.82652171 1.07817396 3.81325108 -0.125 6.6875 C-2 9 -2 9 -4.4375 10.0625 C-7 10 -7 10 -9.3125 8.0625 C-9.869375 7.381875 -10.42625 6.70125 -11 6 C-10.34 5.67 -9.68 5.34 -9 5 C-8.67 5.66 -8.34 6.32 -8 7 C-5.47266765 7.65555119 -5.47266765 7.65555119 -3 8 C-2.87625 7.4225 -2.7525 6.845 -2.625 6.25 C-1.99351176 3.97664233 -1.11141809 2.0746471 0 0 Z " fill="#FDE3CC" transform="translate(146,140)"/>
<path d="M0 0 C2 1 2 1 3.1171875 3.13671875 C4.15384946 6.49898963 4.19595073 9.30043893 4.125 12.8125 C4.10695313 13.97394531 4.08890625 15.13539062 4.0703125 16.33203125 C4.04710938 17.21246094 4.02390625 18.09289062 4 19 C3.67 19 3.34 19 3 19 C2.49666458 16.39643759 1.99720622 13.79223349 1.5 11.1875 C1.35691406 10.44951172 1.21382813 9.71152344 1.06640625 8.95117188 C0.49073719 5.92205609 0 3.090804 0 0 Z " fill="#FBE4D0" transform="translate(123,75)"/>
<path d="M0 0 C1.98 0 3.96 0 6 0 C2.71486931 2.9793548 0.57448685 3.36263124 -3.8125 3.25 C-5.39224609 3.21132812 -5.39224609 3.21132812 -7.00390625 3.171875 C-10.40021303 2.97704123 -13.65477997 2.60822182 -17 2 C-17 1.67 -17 1.34 -17 1 C-11.39 1.33 -5.78 1.66 0 2 C0 1.34 0 0.68 0 0 Z " fill="#F6DD66" transform="translate(210,207)"/>
<path d="M0 0 C3.5786304 1.65167557 6.74820188 3.78286492 10 6 C9.67 6.99 9.34 7.98 9 9 C4.5937814 7.65365543 2.56922298 5.80625626 0 2 C0 1.34 0 0.68 0 0 Z " fill="#6E9C9F" transform="translate(28,178)"/>
<path d="M0 0 C0.99 0.33 1.98 0.66 3 1 C2.73445313 1.59167969 2.46890625 2.18335937 2.1953125 2.79296875 C0.38863385 6.8349177 -1.40126853 10.8699437 -3 15 C-3.33 15 -3.66 15 -4 15 C-4 13.02 -4 11.04 -4 9 C-3.34 9 -2.68 9 -2 9 C-2.04125 7.88625 -2.0825 6.7725 -2.125 5.625 C-2 2 -2 2 0 0 Z " fill="#DD7035" transform="translate(87,95)"/>
<path d="M0 0 C5.8022175 -0.36263859 9.63999211 0.74315457 15 3 C15 3.66 15 4.32 15 5 C9.88634986 3.9318153 4.92772031 2.76892524 0 1 C0 0.67 0 0.34 0 0 Z " fill="#4E9CC7" transform="translate(64,196)"/>
<path d="M0 0 C0.33 0.66 0.66 1.32 1 2 C0.236875 2.2475 -0.52625 2.495 -1.3125 2.75 C-4.2364045 4.10995558 -5.30004356 5.31585826 -7 8 C-6.67 6.35 -6.34 4.7 -6 3 C-6.66 3 -7.32 3 -8 3 C-8 2.34 -8 1.68 -8 1 C-5.29120665 -0.35439668 -2.99066732 -0.06501451 0 0 Z " fill="#E1702D" transform="translate(124,51)"/>
<path d="M0 0 C1.24546405 2.49092811 0.7767578 3.41080733 0 6 C-0.66 6 -1.32 6 -2 6 C-1.67 8.64 -1.34 11.28 -1 14 C-1.99 13.67 -2.98 13.34 -4 13 C-3.91266424 11.39482903 -3.80447776 9.79078338 -3.6875 8.1875 C-3.62949219 7.29417969 -3.57148438 6.40085937 -3.51171875 5.48046875 C-2.93686419 2.69396 -2.1793144 1.75864246 0 0 Z " fill="#E38149" transform="translate(29,30)"/>
<path d="M0 0 C4.29 0.33 8.58 0.66 13 1 C12.67 1.66 12.34 2.32 12 3 C10.37581255 3.08090971 8.75048255 3.13914995 7.125 3.1875 C5.76761719 3.23970703 5.76761719 3.23970703 4.3828125 3.29296875 C3.20332031 3.14794922 3.20332031 3.14794922 2 3 C1.34 2.01 0.68 1.02 0 0 Z " fill="#0876B9" transform="translate(46,188)"/>
<path d="M0 0 C1.32 0.33 2.64 0.66 4 1 C4.33 4.96 4.66 8.92 5 13 C3.09610151 10.14415227 2.30537823 8.0688238 1.375 4.8125 C0.98441406 3.46091797 0.98441406 3.46091797 0.5859375 2.08203125 C0.39257812 1.39496094 0.19921875 0.70789063 0 0 Z " fill="#DC7338" transform="translate(160,91)"/>
<path d="M0 0 C0.66 0 1.32 0 2 0 C1.74500159 1.79398884 1.47046186 3.58520875 1.1875 5.375 C1.03667969 6.37273437 0.88585937 7.37046875 0.73046875 8.3984375 C0 11 0 11 -3 13 C-2.17812739 8.61667943 -1.09845718 4.32059823 0 0 Z " fill="#DE7138" transform="translate(148,90)"/>
<path d="M0 0 C0.33 0 0.66 0 1 0 C1 2.97 1 5.94 1 9 C1.66 9 2.32 9 3 9 C2.625 11.4375 2.625 11.4375 2 14 C1.01 14.495 1.01 14.495 0 15 C0 10.05 0 5.1 0 0 Z " fill="#E36B26" transform="translate(25,95)"/>
<path d="M0 0 C1.4540625 0.0309375 1.4540625 0.0309375 2.9375 0.0625 C3.2675 1.3825 3.5975 2.7025 3.9375 4.0625 C0.56287285 3.51526317 -1.14485 3.0076 -4.0625 1.0625 C-3.0625 0.0625 -3.0625 0.0625 0 0 Z " fill="#0F77B2" transform="translate(147.0625,219.9375)"/>
<path d="M0 0 C1.65 0 3.3 0 5 0 C3.91796875 1.48828125 3.91796875 1.48828125 2 3 C-1.13671875 3.29296875 -1.13671875 3.29296875 -4.6875 3.1875 C-6.45673828 3.14689453 -6.45673828 3.14689453 -8.26171875 3.10546875 C-9.16535156 3.07066406 -10.06898438 3.03585938 -11 3 C-11 2.67 -11 2.34 -11 2 C-7.37 2 -3.74 2 0 2 C0 1.34 0 0.68 0 0 Z " fill="#E38D5C" transform="translate(233,179)"/>
<path d="M0 0 C3.21043882 1.38188453 5.04936365 2.92421903 7.25 5.625 C8.03117187 6.57246094 8.03117187 6.57246094 8.828125 7.5390625 C9.40820312 8.26222656 9.40820312 8.26222656 10 9 C1.23233381 4.6255141 1.23233381 4.6255141 0.1875 1.8125 C0.125625 1.214375 0.06375 0.61625 0 0 Z " fill="#C2AE6C" transform="translate(26,174)"/>
<path d="M0 0 C0.33 0 0.66 0 1 0 C1.08131463 1.43655854 1.13933559 2.8744483 1.1875 4.3125 C1.23970703 5.51326172 1.23970703 5.51326172 1.29296875 6.73828125 C0.93801608 9.47851584 0.10633718 10.29171079 -2 12 C-1.85904936 10.3745692 -1.71207913 8.74965949 -1.5625 7.125 C-1.48128906 6.22007813 -1.40007812 5.31515625 -1.31640625 4.3828125 C-1 2 -1 2 0 0 Z " fill="#FDE8D4" transform="translate(150,90)"/>
<path d="M0 0 C0.66 0.99 1.32 1.98 2 3 C1 4 1 4 -2.4375 4.125 C-6 4 -6 4 -8 3 C-7.67 2.34 -7.34 1.68 -7 1 C-5.824375 1.309375 -5.824375 1.309375 -4.625 1.625 C-3.75875 1.74875 -2.8925 1.8725 -2 2 C-1.34 1.34 -0.68 0.68 0 0 Z " fill="#DE7238" transform="translate(110,131)"/>
<path d="M0 0 C1.2065625 0.0309375 1.2065625 0.0309375 2.4375 0.0625 C2.4375 1.0525 2.4375 2.0425 2.4375 3.0625 C1.5403125 2.7221875 1.5403125 2.7221875 0.625 2.375 C-0.4578125 2.2203125 -0.4578125 2.2203125 -1.5625 2.0625 C-3.33440909 3.41694301 -3.33440909 3.41694301 -4.5625 5.0625 C-3.43829114 0.08386076 -3.43829114 0.08386076 0 0 Z " fill="#E26C29" transform="translate(55.5625,8.9375)"/>
<path d="M0 0 C0.66 0 1.32 0 2 0 C2.33 1.65 2.66 3.3 3 5 C2.01 5.33 1.02 5.66 0 6 C0 5.34 0 4.68 0 4 C-0.66 4 -1.32 4 -2 4 C-2 3.34 -2 2.68 -2 2 C-1.34 2 -0.68 2 0 2 C0 1.34 0 0.68 0 0 Z " fill="#258AC3" transform="translate(182,226)"/>
<path d="M0 0 C0 0.99 0 1.98 0 3 C-2.875 3.625 -2.875 3.625 -6 4 C-6.66 3.34 -7.32 2.68 -8 2 C-5.09399739 0.74335022 -3.20395416 0 0 0 Z " fill="#E7986C" transform="translate(25,110)"/>
</svg>
